# xmcd CD database file
#
# Track frame offsets:
#	183
#	13860
#	22435
#	34488
#	48628
#	59513
#	71933
#	84203
#	96933
#	109350
#	120848
#	134928
#	146630
#	159173
#	173043
#	183685
#
# Disc length: 2589 seconds
#
# Revision: 3
# Processed by: cddbd v1.5PL3 Copyright (c) Steve Scherf et al.
# Submitted via: CDex 1.50
#
DISCID=f40a1b10
DTITLE=Ray Charles - I Can't Stop Loving You
DYEAR=1988
DGENRE=Jazz
TTITLE0=I Can't Stop Loving You
TTITLE1=Hit The Road Jack
TTITLE2=See See Rider
TTITLE3=Walkin' And Talkin'
TTITLE4=I Wonder Who's Kissing Her Now
TTITLE5=I Had My Fun
TTITLE6=Kiss Me Baby
TTITLE7=Snow Is Fallin'
TTITLE8=I Wont Let You Go
TTITLE9=If I Give My Love
TTITLE10=Blues Is My Middle Name
TTITLE11=Tell Me Baby
TTITLE12=I'm Glad For Your Sake 
TTITLE13=Baby Let Me Hold Your Hand
TTITLE14=Sitting On The Top Of The World
TTITLE15=All The Girls In Town
EXTD=YEAR: 1988
EXTT0=
EXTT1=
EXTT2=
EXTT3=
EXTT4=
EXTT5=
EXTT6=
EXTT7=
EXTT8=
EXTT9=
EXTT10=
EXTT11=
EXTT12=
EXTT13=
EXTT14=
EXTT15=
PLAYORDER=
